<svg width="101" height="38" viewBox="0 0 101 38" fill="none" xmlns="http://www.w3.org/2000/svg">
<path d="M29.5454 8.33813L30.4521 28.6526H26.1794L25.8626 20.9028L15.7461 35.9911L11.3548 21.8287L4.63372 37.8056H0L11.9243 9.45887L17.1561 26.2799L29.5454 8.33813Z" fill="white"/>
<path d="M19.9871 0C30.317 0 38.691 8.38998 38.691 18.7395C38.691 26.5706 33.8967 33.2797 27.0883 36.0812L27.0883 33.4329C32.5275 30.7893 36.2776 25.2032 36.2776 18.7395C36.2776 9.7254 28.9841 2.418 19.9871 2.418C10.9901 2.418 3.69661 9.7254 3.69661 18.7395C3.69661 22.5064 4.97026 25.9752 7.10964 28.7373L5.46025 28.7371L5.45997 30.5442C2.84832 27.322 1.2832 23.2139 1.2832 18.7395C1.2832 8.38998 9.65723 0 19.9871 0Z" fill="white"/>
<path fill-rule="evenodd" clip-rule="evenodd" d="M27.2927 33.3524L26.1598 32.7839H23.6836V36.574H26.1598L27.2927 35.9911V33.3524Z" fill="white"/>
<path d="M23.6842 33.3524H21.2207V34.2999H23.6842V33.3524Z" fill="white"/>
<path d="M23.6842 35.058H21.2207V36.0055H23.6842V35.058Z" fill="white"/>
<path d="M49.5511 15.3418L48.7317 13.4892L48.3576 15.3418L47.1463 21.4517H45.169L47.8766 8.35901H48.0904L51.6887 15.4309L52.7574 17.8L53.8262 15.4309L57.3533 8.35901H57.5492L60.3637 21.4517H58.4042L57.0861 15.3418L56.6942 13.4892L55.9816 15.3418L52.8109 21.4517H52.704L49.5511 15.3418ZM65.4811 21.6299C64.7448 21.6299 64.0649 21.4547 63.4414 21.1044C62.818 20.7541 62.3192 20.2553 61.9451 19.6081C61.571 18.9609 61.384 18.2038 61.384 17.3369C61.384 16.4818 61.5473 15.7337 61.8739 15.0924C62.2005 14.4511 62.6666 13.9524 63.2722 13.5961C63.8779 13.2398 64.5904 13.0617 65.4098 13.0617C65.8848 13.0617 66.3302 13.1448 66.7458 13.3111C67.1614 13.4773 67.5118 13.6822 67.7968 13.9256C68.0818 14.1691 68.2718 14.4096 68.3668 14.6471L68.4024 13.2755H70.2372V21.4517H68.4202L68.3846 20.0089C68.1827 20.4364 67.8146 20.8134 67.2802 21.14C66.7458 21.4666 66.1461 21.6299 65.4811 21.6299ZM65.8017 20.0267C66.4786 20.0267 67.0486 19.7921 67.5118 19.3231C67.9749 18.854 68.2065 18.2394 68.2065 17.4794V17.3547C68.2065 16.8441 68.0996 16.3868 67.8858 15.9831C67.6721 15.5793 67.3811 15.2646 67.013 15.039C66.6449 14.8133 66.2411 14.7005 65.8017 14.7005C65.0417 14.7005 64.4538 14.9469 64.0382 15.4398C63.6225 15.9326 63.4147 16.5709 63.4147 17.3547C63.4147 18.1504 63.6196 18.7946 64.0293 19.2874C64.439 19.7803 65.0298 20.0267 65.8017 20.0267ZM72.354 13.2755H74.2778V14.8787C74.4679 14.3324 74.7766 13.893 75.2041 13.5605C75.6317 13.228 76.1185 13.0617 76.6648 13.0617C77.0448 13.0617 77.3061 13.0973 77.4486 13.1686L77.1814 15.1102C77.0745 15.039 76.843 15.0033 76.4867 15.0033C75.9285 15.0033 75.4209 15.1815 74.9637 15.5377C74.5064 15.894 74.2778 16.464 74.2778 17.2478V21.4517H72.354V13.2755ZM78.4649 13.2755H80.6559L82.4195 16.9628L82.9895 18.4413L83.5595 16.9628L85.3052 13.2755H87.4428L83.1498 21.4517H82.7757L78.4649 13.2755ZM92.3236 21.6299C91.3498 21.6299 90.5364 21.4369 89.8832 21.0509C89.2301 20.665 88.7491 20.1484 88.4403 19.5012C88.1316 18.854 87.9772 18.1444 87.9772 17.3725C87.9772 16.5056 88.1583 15.7456 88.5205 15.0924C88.8827 14.4393 89.3844 13.9375 90.0257 13.5872C90.667 13.2369 91.3914 13.0617 92.1989 13.0617C93.4577 13.0617 94.3929 13.4091 95.0045 14.1038C95.6161 14.7985 95.9219 15.7753 95.9219 17.0341C95.9219 17.3547 95.9041 17.6872 95.8685 18.0316H89.9901C90.1207 18.756 90.379 19.2785 90.765 19.5992C91.1509 19.9198 91.6883 20.0801 92.3771 20.0801C92.9471 20.0801 93.4162 20.0326 93.7843 19.9376C94.1525 19.8426 94.4909 19.712 94.7997 19.5457L95.3875 20.9173C95.0906 21.1074 94.6869 21.2736 94.1762 21.4161C93.6656 21.5586 93.048 21.6299 92.3236 21.6299ZM94.0515 16.6956C94.0634 15.9593 93.9031 15.4398 93.5706 15.1369C93.238 14.8341 92.763 14.6827 92.1455 14.6827C90.8986 14.6827 90.1801 15.3537 89.9901 16.6956H94.0515ZM98.0951 8.35901H100.001V21.4517H98.0951V8.35901ZM44.9785 25.3815H46.2918C46.6165 25.3815 46.8608 25.4818 47.0248 25.6824C47.1888 25.8829 47.2707 26.1265 47.2707 26.413C47.2707 26.6995 47.1888 26.9423 47.0248 27.1413C46.8608 27.3402 46.6165 27.4397 46.2918 27.4397H45.4274V28.6718H44.9785V25.3815ZM46.287 25.797H45.4274V27.0243H46.2631C46.451 27.0243 46.5918 26.9646 46.6857 26.8452C46.7797 26.7258 46.8266 26.5817 46.8266 26.413C46.8266 26.2443 46.7813 26.0994 46.6905 25.9784C46.5998 25.8575 46.4653 25.797 46.287 25.797ZM48.0558 27.0338C48.0558 26.5626 48.2166 26.1631 48.5382 25.8352C48.8597 25.5073 49.2529 25.3433 49.7177 25.3433C50.1857 25.3433 50.5813 25.5073 50.9044 25.8352C51.2275 26.1631 51.3891 26.5626 51.3891 27.0338C51.3891 27.5018 51.2275 27.8998 50.9044 28.2277C50.5813 28.5556 50.1857 28.7196 49.7177 28.7196C49.2529 28.7196 48.8597 28.5556 48.5382 28.2277C48.2166 27.8998 48.0558 27.5018 48.0558 27.0338ZM48.8533 26.1408C48.6177 26.3859 48.5 26.6836 48.5 27.0338C48.5 27.384 48.617 27.6809 48.851 27.9244C49.085 28.168 49.3739 28.2898 49.7177 28.2898C50.0615 28.2898 50.3512 28.168 50.5868 27.9244C50.8224 27.6809 50.9402 27.384 50.9402 27.0338C50.9402 26.6836 50.8224 26.3859 50.5868 26.1408C50.3512 25.8957 50.0615 25.7731 49.7177 25.7731C49.3771 25.7731 49.0889 25.8957 48.8533 26.1408ZM55.7128 25.3815H56.1904L55.0777 28.6718H54.6909L54.1083 26.6183L53.5304 28.6718H53.1436L52.031 25.3815H52.5085L53.3347 27.9555L53.9411 25.8256H54.2802L54.8867 27.9555L55.7128 25.3815ZM57.1092 25.3815H59.0576V25.797H57.5533V26.8476H58.8666V27.263H57.5533V28.2563H59.1053V28.6718H57.1092V25.3815ZM61.5857 27.4254L62.4644 28.6718H61.9248L61.0748 27.4397H60.6545V28.6718H60.2056V25.3815H61.4711C61.7959 25.3815 62.0394 25.4818 62.2018 25.6824C62.3641 25.8829 62.4453 26.1265 62.4453 26.413C62.4453 26.6804 62.3745 26.9096 62.2328 27.1007C62.0911 27.2917 61.8754 27.3999 61.5857 27.4254ZM61.4568 25.797H60.6545V27.0243H61.4377C61.6255 27.0243 61.764 26.9654 61.8532 26.8476C61.9423 26.7298 61.9869 26.5849 61.9869 26.413C61.9869 26.2443 61.9431 26.0994 61.8555 25.9784C61.768 25.8575 61.6351 25.797 61.4568 25.797ZM67.7595 25.7779L67.4395 26.0739C67.2103 25.8702 66.9461 25.7683 66.6468 25.7683C66.3061 25.7683 66.018 25.8917 65.7824 26.1384C65.5468 26.3851 65.4291 26.6836 65.4291 27.0338C65.4291 27.384 65.5468 27.6817 65.7824 27.9268C66.018 28.172 66.3061 28.2945 66.6468 28.2945C66.9461 28.2945 67.1928 28.2141 67.387 28.0534C67.5812 27.8926 67.6847 27.6769 67.6974 27.4063H66.7614V27.0195H68.2036C68.2036 27.583 68.0651 28.0072 67.7881 28.2921C67.5112 28.5771 67.1307 28.7196 66.6468 28.7196C66.182 28.7196 65.7888 28.5556 65.4673 28.2277C65.1457 27.8998 64.9849 27.5018 64.9849 27.0338C64.9849 26.5626 65.1457 26.1631 65.4673 25.8352C65.7888 25.5073 66.182 25.3433 66.6468 25.3433C67.0766 25.3433 67.4475 25.4881 67.7595 25.7779ZM70.5885 27.4254L71.4672 28.6718H70.9275L70.0775 27.4397H69.6573V28.6718H69.2084V25.3815H70.4739C70.7986 25.3815 71.0421 25.4818 71.2045 25.6824C71.3669 25.8829 71.4481 26.1265 71.4481 26.413C71.4481 26.6804 71.3772 26.9096 71.2356 27.1007C71.0939 27.2917 70.8782 27.3999 70.5885 27.4254ZM70.4595 25.797H69.6573V27.0243H70.4404C70.6283 27.0243 70.7668 26.9654 70.8559 26.8476C70.945 26.7298 70.9896 26.5849 70.9896 26.413C70.9896 26.2443 70.9458 26.0994 70.8583 25.9784C70.7707 25.8575 70.6378 25.797 70.4595 25.797ZM72.3478 27.0338C72.3478 26.5626 72.5085 26.1631 72.8301 25.8352C73.1516 25.5073 73.5448 25.3433 74.0096 25.3433C74.4776 25.3433 74.8732 25.5073 75.1963 25.8352C75.5195 26.1631 75.681 26.5626 75.681 27.0338C75.681 27.5018 75.5195 27.8998 75.1963 28.2277C74.8732 28.5556 74.4776 28.7196 74.0096 28.7196C73.5448 28.7196 73.1516 28.5556 72.8301 28.2277C72.5085 27.8998 72.3478 27.5018 72.3478 27.0338ZM73.1453 26.1408C72.9097 26.3859 72.7919 26.6836 72.7919 27.0338C72.7919 27.384 72.9089 27.6809 73.1429 27.9244C73.3769 28.168 73.6658 28.2898 74.0096 28.2898C74.3535 28.2898 74.6432 28.168 74.8788 27.9244C75.1144 27.6809 75.2322 27.384 75.2322 27.0338C75.2322 26.6836 75.1144 26.3859 74.8788 26.1408C74.6432 25.8957 74.3535 25.7731 74.0096 25.7731C73.669 25.7731 73.3809 25.8957 73.1453 26.1408ZM77.3974 28.0796C77.5438 28.2197 77.7221 28.2898 77.9322 28.2898C78.1423 28.2898 78.3206 28.2197 78.4671 28.0796C78.6135 27.9396 78.6867 27.7597 78.6867 27.54V25.3815H79.1356V27.54C79.1356 27.8902 79.0186 28.1743 78.7846 28.3924C78.5506 28.6105 78.2665 28.7196 77.9322 28.7196C77.5979 28.7196 77.3138 28.6105 77.0798 28.3924C76.8458 28.1743 76.7288 27.8902 76.7288 27.54V25.3815H77.1777V27.54C77.1777 27.7597 77.2509 27.9396 77.3974 28.0796ZM81.7115 25.3815C82.0363 25.3815 82.2806 25.4818 82.4446 25.6824C82.6085 25.8829 82.6905 26.1265 82.6905 26.413C82.6905 26.6995 82.6085 26.9423 82.4446 27.1413C82.2806 27.3402 82.0363 27.4397 81.7115 27.4397H80.8472V28.6718H80.3983V25.3815H81.7115ZM81.7068 25.797H80.8472V27.0243H81.6829C81.8707 27.0243 82.0116 26.9646 82.1055 26.8452C82.1994 26.7258 82.2464 26.5817 82.2464 26.413C82.2464 26.2443 82.201 26.0994 82.1103 25.9784C82.0196 25.8575 81.885 25.797 81.7068 25.797Z" fill="white"/>
</svg>
